Coordinates
version=1
nRows=14
nColumns=40
inDegrees=yes

Units are S.I. units (second, meters, Newtons, ...)
If the header above contains a line with 'inDegrees', this indicates whether rotational values are in degrees (yes) or radians (no).

endheader
time	pelvis_tilt	pelvis_list	pelvis_rotation	pelvis_tx	pelvis_ty	pelvis_tz	hip_flexion_r	hip_adduction_r	hip_rotation_r	knee_angle_r	knee_angle_r_beta	ankle_angle_r	subtalar_angle_r	mtp_angle_r	hip_flexion_l	hip_adduction_l	hip_rotation_l	knee_angle_l	knee_angle_l_beta	ankle_angle_l	subtalar_angle_l	mtp_angle_l	lumbar_extension	lumbar_bending	lumbar_rotation	arm_flex_r	arm_add_r	arm_rot_r	elbow_flex_r	pro_sup_r	wrist_flex_r	wrist_dev_r	arm_flex_l	arm_add_l	arm_rot_l	elbow_flex_l	pro_sup_l	wrist_flex_l	wrist_dev_l
      3.93500000	      3.20145286	      2.41793992	     -0.63120688	     -0.22623718	      1.52671874	     -0.82832066	    -13.61975818	     -9.58875243	    -13.13470125	      3.05389440	      0.05330051	    -37.70484827	      0.00000000	      0.00000000	     -8.71088063	     -6.06905168	     -9.10816190	      4.76660270	      0.08319291	    -35.13638677	      0.00000000	      0.00000000	     -8.56629937	     -6.73431525	     -3.69712222	    -48.01001188	    -41.26039528	      4.87632165	    115.86432952	     87.53748473	      0.00000000	      0.00000000	    -27.84731980	    -60.73430622	     43.79085995	    103.57880008	     88.17723993	      0.00000000	      0.00000000
      3.94000000	      3.02375585	      2.43958068	     -0.65494546	     -0.22694642	      1.52588900	     -0.82825793	    -13.35436502	     -9.67696464	    -12.71772423	      3.13897338	      0.05478542	    -37.52528289	      0.00000000	      0.00000000	     -8.46259463	     -6.04498390	     -8.81955806	      4.78490846	      0.08351241	    -35.06206280	      0.00000000	      0.00000000	     -8.41957112	     -6.80225856	     -3.76245143	    -47.85826492	    -41.34106650	      4.94931556	    115.67183267	     87.48575242	      0.00000000	      0.00000000	    -27.85391203	    -60.61174543	     43.85145809	    103.43992600	     88.18140860	      0.00000000	      0.00000000
      3.94500000	      2.91325108	      2.42504977	     -0.62107774	     -0.22796281	      1.52505044	     -0.82819592	    -13.13995847	     -9.71115671	    -12.34259322	      3.27724250	      0.05719867	    -37.31614796	      0.00000000	      0.00000000	     -8.21700241	     -6.08743977	     -8.61148764	      4.87214355	      0.08503495	    -35.01907194	      0.00000000	      0.00000000	     -8.40075274	     -6.83072504	     -3.89134727	    -47.68628643	    -41.39591373	      5.03981585	    115.50156677	     87.50342989	      0.00000000	      0.00000000	    -27.91285308	    -60.48777010	     43.73598184	    103.31055685	     88.18225033	      0.00000000	      0.00000000
      3.95000000	      2.72498332	      2.36121388	     -0.59719314	     -0.22862102	      1.52374318	     -0.82816375	    -12.84592080	     -9.70065423	    -11.84379395	      3.41139904	      0.05954015	    -37.14281833	      0.00000000	      0.00000000	     -7.93100033	     -6.17944268	     -8.46328111	      4.93709305	      0.08616853	    -34.81689172	      0.00000000	      0.00000000	     -8.27004093	     -6.82197023	     -4.39427780	    -47.08753068	    -41.82308190	      5.67459921	    115.22267139	     87.30549237	      0.00000000	      0.00000000	    -29.39230753	    -60.00546497	     42.12553864	    103.26608992	     88.27180026	      0.00000000	      0.00000000
      3.95500000	      2.64707784	      2.29915745	     -0.54265553	     -0.22932312	      1.52231049	     -0.82793241	    -12.70282053	     -9.66336846	    -11.66264834	      3.52271891	      0.06148304	    -36.85623843	      0.00000000	      0.00000000	     -7.76288403	     -6.28839747	     -8.14933447	      4.97296949	      0.08679469	    -34.78511462	      0.00000000	      0.00000000	     -8.24196089	     -6.79690813	     -4.14666346	    -47.44915982	    -41.48904383	      5.26358115	    115.12472368	     87.49077780	      0.00000000	      0.00000000	    -28.16545806	    -60.29335394	     43.47929895	    103.14479873	     88.20185303	      0.00000000	      0.00000000
      3.96000000	      2.50202006	      2.26379768	     -0.62515986	     -0.23004839	      1.52046869	     -0.82771394	    -12.42136976	     -9.71853924	    -11.12480679	      3.68127138	      0.06425031	    -36.53010499	      0.00000000	      0.00000000	     -7.51590097	     -6.36681159	     -8.13926442	      5.15483790	      0.08996889	    -34.65726057	      0.00000000	      0.00000000	     -8.15571368	     -6.81227265	     -4.08556467	    -47.46132588	    -41.44085441	      5.21753668	    115.03068272	     87.52037848	      0.00000000	      0.00000000	    -28.15832183	    -60.22674452	     43.47613582	    103.08815303	     88.18103062	      0.00000000	      0.00000000
      3.96500000	      2.38148025	      2.27281780	     -0.58907696	     -0.23093173	      1.51849823	     -0.82764928	    -12.21195580	     -9.78085798	    -10.82585598	      3.80775277	      0.06645782	    -36.23867228	      0.00000000	      0.00000000	     -7.26930447	     -6.39956738	     -7.99564670	      5.26565786	      0.09190307	    -34.72161635	      0.00000000	      0.00000000	     -8.12564556	     -6.86258353	     -4.17570446	    -47.39093317	    -41.41349554	      5.23905641	    114.87669175	     87.52727745	      0.00000000	      0.00000000	    -28.09280415	    -60.20125556	     43.51935314	    103.04548333	     88.18058752	      0.00000000	      0.00000000
      3.97000000	      2.38589824	      2.24547980	     -0.61398563	     -0.23167751	      1.51645538	     -0.82740329	    -12.15790799	     -9.80671752	    -10.80911173	      3.80442339	      0.06639971	    -36.22248497	      0.00000000	      0.00000000	     -7.23296329	     -6.46590125	     -7.98955962	      5.25949236	      0.09179546	    -34.71165617	      0.00000000	      0.00000000	     -8.20567117	     -6.89720031	     -4.20201217	    -47.40338441	    -41.42191024	      5.24206540	    114.86317273	     87.52740329	      0.00000000	      0.00000000	    -28.08249223	    -60.20055293	     43.51916095	    103.04437731	     88.18048882	      0.00000000	      0.00000000
      3.97500000	      2.11938030	      2.11245840	     -0.61679894	     -0.23288005	      1.51373616	     -0.82717209	    -11.63350334	     -9.73861322	    -10.05516589	      4.22693568	      0.07377394	    -35.30402752	      0.00000000	      0.00000000	     -6.73644573	     -6.68127808	     -7.77411074	      5.60519007	      0.09782902	    -34.35005764	      0.00000000	      0.00000000	     -8.06021247	     -6.80116661	     -4.22023171	    -47.29875296	    -41.44852060	      5.33442839	    114.68609395	     87.53854804	      0.00000000	      0.00000000	    -27.93604699	    -60.17800621	     43.60225956	    102.98478430	     88.18232542	      0.00000000	      0.00000000
      3.98000000	      2.11393434	      2.08951399	     -0.63437108	     -0.23347095	      1.51111235	     -0.82695085	    -11.57189686	     -9.77906534	    -10.02917966	      4.22622386	      0.07376152	    -35.27575146	      0.00000000	      0.00000000	     -6.71081577	     -6.75685204	     -7.76592291	      5.60609150	      0.09784475	    -34.34148338	      0.00000000	      0.00000000	     -8.15299843	     -6.82969861	     -4.25022575	    -47.32404931	    -41.44355876	      5.35225238	    114.66090163	     87.53959725	      0.00000000	      0.00000000	    -27.92959479	    -60.18539684	     43.60571082	    102.98421804	     88.18304885	      0.00000000	      0.00000000
      3.98500000	      1.87622797	      1.96552286	     -0.60179678	     -0.23443817	      1.50799677	     -0.82679575	    -11.13863969	     -9.70861119	     -9.43301664	      4.57142817	      0.07978647	    -34.33953327	      0.00000000	      0.00000000	     -6.27569867	     -6.96580312	     -7.49850848	      5.91420700	      0.10322238	    -34.04489685	      0.00000000	      0.00000000	     -8.01559909	     -6.74328688	     -4.26387790	    -47.30902040	    -41.41433871	      5.40341970	    114.50176217	     87.54622417	      0.00000000	      0.00000000	    -27.81736631	    -60.20603334	     43.68713196	    102.97180471	     88.18809498	      0.00000000	      0.00000000
      3.99000000	      1.86857111	      1.94484455	     -0.63049865	     -0.23533680	      1.50490669	     -0.82659143	    -11.03546790	     -9.76237883	     -9.40764668	      4.60675083	      0.08040297	    -34.24758860	      0.00000000	      0.00000000	     -6.21439203	     -7.03444046	     -7.48262873	      5.95146915	      0.10387273	    -33.98877059	      0.00000000	      0.00000000	     -8.15954696	     -6.76936762	     -4.28223800	    -47.31234159	    -41.42359616	      5.41800090	    114.47674008	     87.42638288	      0.00000000	      0.00000000	    -27.79633694	    -60.20933556	     43.68321468	    102.96738473	     88.03825627	      0.00000000	      0.00000000
      3.99500000	      1.74279019	      1.92636140	     -0.68239696	     -0.23665601	      1.50144043	     -0.82625032	    -10.62172140	     -9.82914468	     -8.80350740	      5.04872820	      0.08811693	    -33.31076712	      0.00000000	      0.00000000	     -5.81944087	     -7.15676593	     -7.28638507	      6.37226352	      0.11121698	    -33.82541902	      0.00000000	      0.00000000	     -8.19993338	     -6.82496818	     -4.24046744	    -47.13310200	    -41.39940898	      5.63549266	    114.31674219	     87.44718760	      0.00000000	      0.00000000	    -27.58640207	    -60.27763853	     43.78776820	    103.00109586	     88.12225326	      0.00000000	      0.00000000
      4.00000000	      1.71280344	      1.90152866	     -0.69530114	     -0.23767854	      1.49776885	     -0.82613281	    -10.48906345	     -9.88633684	     -8.78583894	      5.07532355	      0.08858111	    -33.20641074	      0.00000000	      0.00000000	     -5.74830464	     -7.24682010	     -7.27642268	      6.39944745	      0.11169143	    -33.75676852	      0.00000000	      0.00000000	     -8.35885228	     -6.82639398	     -4.27445438	    -47.13036055	    -41.43190503	      5.64019134	    114.29190833	     87.33395115	      0.00000000	      0.00000000	    -27.54410565	    -60.29673120	     43.77868331	    102.99369653	     87.98081435	      0.00000000	      0.00000000
